<?xml version="1.0" encoding="utf-8"?>
<!-- Generator: Adobe Illustrator 25.2.1, SVG Export Plug-In . SVG Version: 6.00 Build 0)  -->
<svg version="1.1" id="Layer_1" xmlns="http://www.w3.org/2000/svg" xmlns:xlink="http://www.w3.org/1999/xlink" x="0px" y="0px"
	 viewBox="20 350 540 130" style="enable-background:new 20 350 540 130;" xml:space="preserve">
<style type="text/css">
	.st0{fill:#F15955;}
	.st1{fill:#1C2631;}
	.st2{opacity:0.5;}
	.st3{clip-path:url(#SVGID_2_);fill:#919495;}
</style>
<g>
	<path class="st0" d="M123.02,401.97l-41.71,24.08c-0.67,0.39-1.09,1.11-1.09,1.88v22.58c0,1.08,1.16,1.76,2.1,1.24l9.53-5.29
		c0.45-0.25,0.73-0.72,0.73-1.24v-4.58c0-0.85,0.46-1.64,1.2-2.07l9.57-5.52c1.45-0.84,3.26,0.21,3.26,1.89v9.17
		c0,0.78-0.41,1.5-1.09,1.88l-24.22,13.98c-0.67,0.39-1.09,1.11-1.09,1.88v14.51c0,1.67,1.81,2.72,3.26,1.89l41.71-24.08
		c0.67-0.39,1.09-1.11,1.09-1.89v-48.43C126.28,402.18,124.47,401.13,123.02,401.97"/>
	<path class="st1" d="M151.46,428.08c0-24.78,19.03-42.52,44.63-42.52c14.21,0,26.08,5.17,33.83,14.57l-12.21,11.27
		c-5.52-6.34-12.45-9.63-20.67-9.63c-15.39,0-26.31,10.81-26.31,26.31c0,15.51,10.92,26.31,26.31,26.31
		c8.22,0,15.15-3.29,20.67-9.75l12.21,11.28c-7.75,9.51-19.61,14.68-33.95,14.68C170.49,470.6,151.46,452.86,151.46,428.08"/>
	<path class="st1" d="M235.79,428.08c0-24.78,19.03-42.52,44.63-42.52c14.21,0,26.08,5.17,33.83,14.57l-12.22,11.27
		c-5.52-6.34-12.45-9.63-20.67-9.63c-15.39,0-26.31,10.81-26.31,26.31c0,15.51,10.92,26.31,26.31,26.31
		c8.22,0,15.15-3.29,20.67-9.75l12.22,11.28c-7.75,9.51-19.61,14.68-33.95,14.68C254.82,470.6,235.79,452.86,235.79,428.08"/>
	<rect x="327.05" y="386.97" class="st1" width="62.14" height="15.27"/>
	<polygon class="st1" points="345.96,453.92 345.96,434.89 384.13,434.89 384.13,420.09 327.05,420.09 327.05,469.19 390.71,469.19 
		390.71,453.92 	"/>
	<path class="st1" d="M72.98,363.74l-14.75,8.52c-1.45,0.84-1.45,2.93,0,3.77l23.94,13.82c1.45,0.84,1.45,2.93,0,3.77l-7.94,4.58
		c-0.67,0.39-1.5,0.39-2.18,0l-28.29-16.33c-0.67-0.39-1.5-0.39-2.18,0l-18.64,10.76c-0.67,0.39-1.09,1.11-1.09,1.88v22.03
		c0,0.78,0.42,1.49,1.09,1.88l28.52,16.47c0.67,0.39,1.09,1.11,1.09,1.88v9.17c0,1.67-1.81,2.72-3.26,1.89l-24.17-13.96
		c-1.45-0.84-3.27,0.21-3.27,1.88v16.52c0,0.78,0.42,1.5,1.09,1.89l41.71,24.08c1.45,0.84,3.26-0.21,3.26-1.88v-55.53
		c0-0.78,0.41-1.5,1.09-1.88l47.63-27.5c1.45-0.84,1.45-2.93,0-3.77l-41.48-23.95C74.49,363.35,73.66,363.35,72.98,363.74"/>
	<g class="st2">
		<g>
			<defs>
				<rect id="SVGID_1_" x="80.22" y="401.68" width="46.06" height="29.16"/>
			</defs>
			<clipPath id="SVGID_2_">
				<use xlink:href="#SVGID_1_"  style="overflow:visible;"/>
			</clipPath>
			<path class="st3" d="M123.02,401.97l-41.71,24.08c-0.67,0.39-1.09,1.11-1.09,1.88v2.9l46.07-17.92v-9.06
				C126.28,402.18,124.47,401.13,123.02,401.97"/>
		</g>
	</g>
	<path class="st0" d="M460.6,444.06c0,13.86-10.69,26.55-34.06,26.55c-11.51,0-23.37-3.17-31.36-8.81l7.4-14.56
		c6.22,4.7,14.92,7.4,23.49,7.4c9.51,0,15.39-3.88,15.39-10.57c0-6.23-4.58-10.1-15.39-10.1h-8.69v-12.57l16.91-19.15h-35v-15.27
		h57.55v12.33l-18.56,21.14C453.08,422.8,460.6,431.96,460.6,444.06"/>
	<path class="st0" d="M469.71,386.97h37.35c26.9,0,45.34,16.21,45.34,41.11c0,24.9-18.44,41.11-45.34,41.11h-37.35V386.97z
		 M506.12,453.57c16.33,0,27.02-9.75,27.02-25.49c0-15.74-10.69-25.49-27.02-25.49h-17.38v50.98H506.12z"/>
</g>
</svg>
